<svg xmlns="http://www.w3.org/2000/svg" width="120" height="146" viewBox="0 0 120 146"><defs><filter id="a" width="200%" height="200%" x="-50%" y="-50%"><feMorphology in="SourceGraphic" operator="dilate" radius="7.6" result="SvgjsFeMorphology1040Out"/><feOffset in="SvgjsFeMorphology1040Out" result="SvgjsFeOffset1041Out"/><feGaussianBlur in="SvgjsFeOffset1041Out" result="SvgjsFeGaussianBlur1042Out" stdDeviation="6.2"/><feComposite in="SvgjsFeGaussianBlur1042Out" in2="SourceAlpha" operator="out" result="SvgjsFeComposite1043Out"/></filter><clipPath id="b"><path fill="#fff" d="M724.53 2157.13c-9.73 1.12-14.94 14.26-13.33 49.12 1.6 34.59-3.01 52.51 10.28 56 13.3 3.47 58.84-31.06 68.63-40.8 9.8-9.75 6.25-19.13-7.74-30.27-14-11.14-49.53-35.01-57.84-34.05z"/></clipPath></defs><path fill="#56a651" d="M724.53 2157.13c-9.73 1.12-14.94 14.26-13.33 49.12 1.6 34.59-3.01 52.51 10.28 56 13.3 3.47 58.84-31.06 68.63-40.8 9.8-9.75 6.25-19.13-7.74-30.27-14-11.14-49.53-35.01-57.84-34.05z" filter="url(#a)" transform="translate(-693 -2137)"/><path fill="#56a651" d="M724.53 2157.13c-9.73 1.12-14.94 14.26-13.33 49.12 1.6 34.59-3.01 52.51 10.28 56 13.3 3.47 58.84-31.06 68.63-40.8 9.8-9.75 6.25-19.13-7.74-30.27-14-11.14-49.53-35.01-57.84-34.05z" filter="url(#a)" transform="translate(-693 -2137)"/><path fill="#fff" d="M31.53 20.13C21.8 21.25 16.6 34.39 18.2 69.25c1.6 34.59-3.01 52.51 10.28 56 13.3 3.47 58.84-31.06 68.63-40.8 9.8-9.75 6.25-19.13-7.74-30.27-14-11.14-49.53-35.01-57.84-34.05z"/><path fill="#fff" d="M31.53 20.13C21.8 21.25 16.6 34.39 18.2 69.25c1.6 34.59-3.01 52.51 10.28 56 13.3 3.47 58.84-31.06 68.63-40.8 9.8-9.75 6.25-19.13-7.74-30.27-14-11.14-49.53-35.01-57.84-34.05z"/><path fill="none" stroke="#453c69" stroke-linecap="round" stroke-linejoin="round" stroke-miterlimit="50" stroke-width="16" d="M724.53 2157.13c-9.73 1.12-14.94 14.26-13.33 49.12 1.6 34.59-3.01 52.51 10.28 56 13.3 3.47 58.84-31.06 68.63-40.8 9.8-9.75 6.25-19.13-7.74-30.27-14-11.14-49.53-35.01-57.84-34.05z" clip-path="url(&quot;#b&quot;)" transform="translate(-693 -2137)"/></svg>